<?xml version="1.0" standalone="no"?>
<!DOCTYPE svg PUBLIC "-//W3C//DTD SVG 20010904//EN"
 "http://www.w3.org/TR/2001/REC-SVG-20010904/DTD/svg10.dtd">
<svg version="1.0" xmlns="http://www.w3.org/2000/svg"
 width="800.000000pt" height="600.000000pt" viewBox="0 0 800.000000 600.000000"
 preserveAspectRatio="xMidYMid meet">

<g transform="translate(0.000000,600.000000) scale(0.100000,-0.100000)"
fill="#000000" stroke="none">
<path d="M5855 4539 c-27 -10 -279 -101 -560 -201 -280 -100 -513 -187 -517
-193 -4 -5 -7 -271 -6 -590 l1 -580 584 -580 583 -580 0 1373 c0 1300 -1 1372
-17 1371 -10 0 -40 -9 -68 -20z"/>
<path d="M1970 2686 c0 -756 3 -1377 8 -1379 4 -2 102 30 217 71 226 79 504
177 785 274 96 34 178 66 182 72 4 6 8 270 8 587 l0 577 -592 586 c-325 322
-595 586 -600 586 -4 0 -8 -618 -8 -1374z"/>
</g>
</svg>
